<?xml version="1.0" encoding="UTF-8"?>
<svg width="842px" height="595px" viewBox="0 0 842 595" version="1.1" xmlns="http://www.w3.org/2000/svg" xmlns:xlink="http://www.w3.org/1999/xlink">
    <!-- Generator: Sketch 51.2 (57519) - http://www.bohemiancoding.com/sketch -->
    <title>09</title>
    <desc>Created with Sketch.</desc>
    <defs>
        <linearGradient x1="71.3202012%" y1="0%" x2="71.3202012%" y2="91.1708024%" id="linearGradient-1">
            <stop stop-color="#84A9CC" offset="0%"></stop>
            <stop stop-color="#BFD7EE" offset="100%"></stop>
        </linearGradient>
        <linearGradient x1="4.04317679%" y1="82.2510747%" x2="12.1519479%" y2="73.7139819%" id="linearGradient-2">
            <stop stop-color="#E2EDF8" offset="0%"></stop>
            <stop stop-color="#84A9CC" offset="100%"></stop>
        </linearGradient>
        <path d="M0,185.86191 C0,185.86191 92.0203125,184.327974 142.379688,194.554214 C179.349878,202.061552 218.2557,210.956847 258.398989,207.274122 C297.149155,203.719481 323.421641,188.978356 355.607691,178.301906 C387.819378,167.617019 421.921831,161.612427 459.666641,164.26767 C503.356603,167.341167 545.818713,176.784332 586.457813,185.86191 C673.442188,205.291765 854.890869,122.366621 879,113.921313 L879,0 L0,0 L0,185.86191 Z" id="path-3"></path>
    </defs>
    <g id="09" stroke="none" stroke-width="1" fill="none" fill-rule="evenodd">
        <rect fill="#FFFFFF" x="0" y="0" width="842" height="595"></rect>
        <g id="Group-2-Copy-3" transform="translate(420.500000, 84.500000) scale(1, -1) rotate(-180.000000) translate(-420.500000, -84.500000) translate(-19.000000, -20.000000)">
            <g id="Fill-5">
                <use fill="url(#linearGradient-1)" xlink:href="#path-3"></use>
                <use fill-opacity="0.1" fill="url(#linearGradient-2)" xlink:href="#path-3"></use>
            </g>
        </g>
        <text id="新的SEO模式" font-family="PingFangTC-Light, PingFang TC" font-size="36" font-weight="300" letter-spacing="4.5" fill="#FFFFFF">
            <tspan x="297" y="103">新的SEO模式</tspan>
        </text>
        <text id="「認知閉合需求」當人面對模糊性的問題時，" font-family="PingFangTC-Light, PingFang TC" font-size="18" font-weight="300" letter-spacing="2.25" fill="#404040">
            <tspan x="77" y="172">「認知閉合需求」當人面對模糊性的問題時，給問題找一個明確答案的欲望。</tspan>
        </text>
        <text id="分析使用需求，一步步引導消費者挑選出最適" font-family="PingFangTC-Light, PingFang TC" font-size="14" font-weight="300" letter-spacing="2.25" fill="#404040">
            <tspan x="123" y="390">分析使用需求，一</tspan>
            <tspan x="123" y="410">步步引導消費者挑</tspan>
            <tspan x="123" y="430">選出最適合自己的</tspan>
            <tspan x="123" y="450">電腦</tspan>
        </text>
        <text id="透過網友分享，論壇方式讓消費者有多方的意" font-family="PingFangTC-Light, PingFang TC" font-size="14" font-weight="300" letter-spacing="2.25" fill="#404040">
            <tspan x="349" y="390">透過網友分享，論</tspan>
            <tspan x="349" y="410">壇方式讓消費者有</tspan>
            <tspan x="349" y="430">多方的意見參考，</tspan>
            <tspan x="349" y="450">一則降低購物上的</tspan>
            <tspan x="349" y="470">不信任感，更讓需</tspan>
            <tspan x="349" y="490">求不明確的消費者</tspan>
            <tspan x="349" y="510">有更完整的選擇依</tspan>
            <tspan x="349" y="530">據</tspan>
        </text>
        <text id="用互動遊戲讓消費者可以用簡單的方式瞭解電" font-family="PingFangTC-Light, PingFang TC" font-size="14" font-weight="300" letter-spacing="2.25" fill="#404040">
            <tspan x="575" y="390">用互動遊戲讓消費</tspan>
            <tspan x="575" y="410">者可以用簡單的方</tspan>
            <tspan x="575" y="430">式瞭解電腦相關科</tspan>
            <tspan x="575" y="450">普知識，讓消費者</tspan>
            <tspan x="575" y="470">在體驗遊戲的同時</tspan>
            <tspan x="575" y="490">也能吸收知識</tspan>
        </text>
        <text id="客製組裝" font-family="PingFangTC-Light, PingFang TC" font-size="18" font-weight="300" letter-spacing="2.892857" fill="#404040">
            <tspan x="154" y="250">客製組裝</tspan>
        </text>
        <text id="用戶評論區" font-family="PingFangTC-Light, PingFang TC" font-size="18" font-weight="300" letter-spacing="2.892857" fill="#404040">
            <tspan x="369" y="250">用戶評論區</tspan>
        </text>
        <text id="科普小遊戲" font-family="PingFangTC-Light, PingFang TC" font-size="18" font-weight="300" letter-spacing="2.892857" fill="#404040">
            <tspan x="595" y="250">科普小遊戲</tspan>
        </text>
        <g id="Group-3" transform="translate(155.000000, 274.000000)" fill-rule="nonzero">
            <g id="Group-2">
                <path d="M78.3889609,70.7036797 C78.3889609,68.5813438 79.8226562,66.7940879 81.774291,66.2571816 C82.4763867,66.0641094 83,65.4835957 83,64.7555625 L83,18.2442754 C83,17.5160801 82.4762246,16.9358906 81.774291,16.7426562 C79.8226562,16.2060742 78.3889609,14.4186562 78.3889609,12.2963203 C78.3889609,10.1739844 79.8226562,8.38672852 81.774291,7.84982227 C82.4763867,7.65675 83,7.07623633 83,6.34820313 L83,4.61103906 C83,2.06446289 80.9355371,0 78.3889609,0 L4.61103906,0 C2.06446289,0 0,2.06446289 0,4.61103906 L0,6.34820312 C0,7.07639844 0.523775391,7.65658789 1.22570898,7.84982227 C3.17734375,8.3864043 4.61103906,10.1738223 4.61103906,12.2961582 C4.61103906,14.4184941 3.17734375,16.20575 1.22570898,16.7426562 C0.523775391,16.9358906 0,17.5160801 0,18.2442754 L0,64.7555625 C0,65.4837578 0.523775391,66.0639473 1.22570898,66.2571816 C3.17734375,66.7939258 4.61103906,68.5813438 4.61103906,70.7036797 C4.61103906,72.8260156 3.17734375,74.6132715 1.22570898,75.1501777 C0.523775391,75.34325 0,75.9234395 0,76.6516348 L0,78.3887988 C0,80.9355371 2.06446289,83 4.61103906,83 L78.3887988,83 C80.9355371,83 82.9998379,80.9355371 82.9998379,78.3889609 L82.9998379,76.6517969 C82.9998379,75.9236016 82.4760625,75.3434121 81.7741289,75.1501777 C79.8224941,74.6132715 78.3889609,72.8260156 78.3889609,70.7036797 Z" id="Shape" fill="#A1D67F"></path>
                <g id="Group" transform="translate(19.584270, 9.325843)" fill="#929CB4">
                    <path d="M22.9784767,7.88201573 L19.9202384,7.88201573 C19.0758079,7.88201573 18.3911999,7.18922219 18.3911999,6.33469522 L18.3911999,1.6924073 C18.3911999,0.837880337 19.0758079,0.145086798 19.9202384,0.145086798 L22.9784767,0.145086798 C23.8229072,0.145086798 24.5075152,0.837880337 24.5075152,1.6924073 L24.5075152,6.33453202 C24.5076765,7.18922219 23.8230685,7.88201573 22.9784767,7.88201573 Z" id="Shape"></path>
                    <path d="M32.1531917,7.88201573 L29.0949534,7.88201573 C28.2505229,7.88201573 27.5659148,7.18922219 27.5659148,6.33469522 L27.5659148,1.6924073 C27.5659148,0.837880337 28.2505229,0.145086798 29.0949534,0.145086798 L32.1531917,0.145086798 C32.9976222,0.145086798 33.6823915,0.837880337 33.6823915,1.6924073 L33.6823915,6.33453202 C33.6823915,7.18922219 32.9977835,7.88201573 32.1531917,7.88201573 Z" id="Shape"></path>
                    <path d="M41.3279066,7.88201573 L38.2696683,7.88201573 C37.4252378,7.88201573 36.7406298,7.18922219 36.7406298,6.33469522 L36.7406298,1.6924073 C36.7406298,0.837880337 37.4252378,0.145086798 38.2696683,0.145086798 L41.3279066,0.145086798 C42.1723372,0.145086798 42.8569452,0.837880337 42.8569452,1.6924073 L42.8569452,6.33453202 C42.8571064,7.18922219 42.1723372,7.88201573 41.3279066,7.88201573 Z" id="Shape"></path>
                    <path d="M4.62920808,7.88201573 L1.57096976,7.88201573 C0.726539241,7.88201573 0.0419312326,7.18922219 0.0419312326,6.33469522 L0.0419312326,1.6924073 C0.0419312326,0.837880337 0.726539241,0.145086798 1.57096976,0.145086798 L4.62920808,0.145086798 C5.47363859,0.145086798 6.1582466,0.837880337 6.1582466,1.6924073 L6.1582466,6.33453202 C6.1582466,7.18922219 5.47363859,7.88201573 4.62920808,7.88201573 Z" id="Shape"></path>
                    <path d="M13.803923,7.88201573 L10.7456847,7.88201573 C9.9012542,7.88201573 9.21664619,7.18922219 9.21664619,6.33469522 L9.21664619,1.6924073 C9.21664619,0.837880337 9.9012542,0.145086798 10.7456847,0.145086798 L13.803923,0.145086798 C14.6483536,0.145086798 15.3329616,0.837880337 15.3329616,1.6924073 L15.3329616,6.33453202 C15.3329616,7.18922219 14.6483536,7.88201573 13.803923,7.88201573 Z" id="Shape"></path>
                    <path d="M22.9784767,65.1358121 L19.9202384,65.1358121 C19.0758079,65.1358121 18.3911999,64.4430185 18.3911999,63.5884916 L18.3911999,58.9463669 C18.3911999,58.0918399 19.0758079,57.3990463 19.9202384,57.3990463 L22.9784767,57.3990463 C23.8229072,57.3990463 24.5075152,58.0918399 24.5075152,58.9463669 L24.5075152,63.5884916 C24.5076765,64.4430185 23.8230685,65.1358121 22.9784767,65.1358121 Z" id="Shape"></path>
                    <path d="M32.1531917,65.1358121 L29.0949534,65.1358121 C28.2505229,65.1358121 27.5659148,64.4430185 27.5659148,63.5884916 L27.5659148,58.9463669 C27.5659148,58.0918399 28.2505229,57.3990463 29.0949534,57.3990463 L32.1531917,57.3990463 C32.9976222,57.3990463 33.6823915,58.0918399 33.6823915,58.9463669 L33.6823915,63.5884916 C33.6823915,64.4430185 32.9977835,65.1358121 32.1531917,65.1358121 Z" id="Shape"></path>
                    <path d="M41.3279066,65.1358121 L38.2696683,65.1358121 C37.4252378,65.1358121 36.7406298,64.4430185 36.7406298,63.5884916 L36.7406298,58.9463669 C36.7406298,58.0918399 37.4252378,57.3990463 38.2696683,57.3990463 L41.3279066,57.3990463 C42.1723372,57.3990463 42.8569452,58.0918399 42.8569452,58.9463669 L42.8569452,63.5884916 C42.8571064,64.4430185 42.1723372,65.1358121 41.3279066,65.1358121 Z" id="Shape"></path>
                    <path d="M4.62920808,65.1358121 L1.57096976,65.1358121 C0.726539241,65.1358121 0.0419312326,64.4430185 0.0419312326,63.5884916 L0.0419312326,58.9463669 C0.0419312326,58.0918399 0.726539241,57.3990463 1.57096976,57.3990463 L4.62920808,57.3990463 C5.47363859,57.3990463 6.1582466,58.0918399 6.1582466,58.9463669 L6.1582466,63.5884916 C6.1582466,64.4430185 5.47363859,65.1358121 4.62920808,65.1358121 Z" id="Shape"></path>
                    <path d="M13.803923,65.1358121 L10.7456847,65.1358121 C9.9012542,65.1358121 9.21664619,64.4430185 9.21664619,63.5884916 L9.21664619,58.9463669 C9.21664619,58.0918399 9.9012542,57.3990463 10.7456847,57.3990463 L13.803923,57.3990463 C14.6483536,57.3990463 15.3329616,58.0918399 15.3329616,58.9463669 L15.3329616,63.5884916 C15.3329616,64.4430185 14.6483536,65.1358121 13.803923,65.1358121 Z" id="Shape"></path>
                </g>
                <ellipse id="Oval" fill="#87B26B" cx="11.7919919" cy="7.03261184" rx="2.32106236" ry="2.29779356"></ellipse>
                <ellipse id="Oval" fill="#87B26B" cx="72.1405924" cy="7.03261184" rx="2.32106236" ry="2.29779356"></ellipse>
                <ellipse id="Oval" fill="#87B26B" cx="11.7919919" cy="75.9673882" rx="2.32106236" ry="2.29779356"></ellipse>
                <ellipse id="Oval" fill="#87B26B" cx="72.1405924" cy="75.9673882" rx="2.32106236" ry="2.29779356"></ellipse>
                <g id="Group" transform="translate(9.325843, 19.584270)" fill="#929CB4">
                    <path d="M57.3988831,22.9784767 L57.3988831,19.9202384 C57.3988831,19.0758079 58.0916767,18.3911999 58.9462037,18.3911999 L63.5883284,18.3911999 C64.4428553,18.3911999 65.1356489,19.0758079 65.1356489,19.9202384 L65.1356489,22.9784767 C65.1356489,23.8229072 64.4428553,24.5075152 63.5883284,24.5075152 L58.9462037,24.5075152 C58.0916767,24.5076765 57.3988831,23.8230685 57.3988831,22.9784767 Z" id="Shape"></path>
                    <path d="M57.3988831,32.1531917 L57.3988831,29.0949534 C57.3988831,28.2505229 58.0916767,27.5659148 58.9462037,27.5659148 L63.5883284,27.5659148 C64.4428553,27.5659148 65.1356489,28.2505229 65.1356489,29.0949534 L65.1356489,32.1531917 C65.1356489,32.9976222 64.4428553,33.6823915 63.5883284,33.6823915 L58.9462037,33.6823915 C58.0916767,33.6823915 57.3988831,32.9977835 57.3988831,32.1531917 Z" id="Shape"></path>
                    <path d="M57.3988831,41.3279066 L57.3988831,38.2696683 C57.3988831,37.4252378 58.0916767,36.7406298 58.9462037,36.7406298 L63.5883284,36.7406298 C64.4428553,36.7406298 65.1356489,37.4252378 65.1356489,38.2696683 L65.1356489,41.3279066 C65.1356489,42.1723372 64.4428553,42.8569452 63.5883284,42.8569452 L58.9462037,42.8569452 C58.0916767,42.8571064 57.3988831,42.1723372 57.3988831,41.3279066 Z" id="Shape"></path>
                    <path d="M57.3988831,4.62920808 L57.3988831,1.57096976 C57.3988831,0.726539241 58.0916767,0.0419312326 58.9462037,0.0419312326 L63.5883284,0.0419312326 C64.4428553,0.0419312326 65.1356489,0.726539241 65.1356489,1.57096976 L65.1356489,4.62920808 C65.1356489,5.47363859 64.4428553,6.1582466 63.5883284,6.1582466 L58.9462037,6.1582466 C58.0916767,6.1582466 57.3988831,5.47363859 57.3988831,4.62920808 Z" id="Shape"></path>
                    <path d="M57.3988831,13.803923 L57.3988831,10.7456847 C57.3988831,9.9012542 58.0916767,9.21664619 58.9462037,9.21664619 L63.5883284,9.21664619 C64.4428553,9.21664619 65.1356489,9.9012542 65.1356489,10.7456847 L65.1356489,13.803923 C65.1356489,14.6483536 64.4428553,15.3329616 63.5883284,15.3329616 L58.9462037,15.3329616 C58.0916767,15.3329616 57.3988831,14.6483536 57.3988831,13.803923 Z" id="Shape"></path>
                    <path d="M0.145086798,22.9784767 L0.145086798,19.9202384 C0.145086798,19.0758079 0.837880337,18.3911999 1.6924073,18.3911999 L6.33453202,18.3911999 C7.18905899,18.3911999 7.88185253,19.0758079 7.88185253,19.9202384 L7.88185253,22.9784767 C7.88185253,23.8229072 7.18905899,24.5075152 6.33453202,24.5075152 L1.6924073,24.5075152 C0.837880337,24.5076765 0.145086798,23.8230685 0.145086798,22.9784767 Z" id="Shape"></path>
                    <path d="M0.145086798,32.1531917 L0.145086798,29.0949534 C0.145086798,28.2505229 0.837880337,27.5659148 1.6924073,27.5659148 L6.33453202,27.5659148 C7.18905899,27.5659148 7.88185253,28.2505229 7.88185253,29.0949534 L7.88185253,32.1531917 C7.88185253,32.9976222 7.18905899,33.6823915 6.33453202,33.6823915 L1.6924073,33.6823915 C0.837880337,33.6823915 0.145086798,32.9977835 0.145086798,32.1531917 Z" id="Shape"></path>
                    <path d="M0.145086798,41.3279066 L0.145086798,38.2696683 C0.145086798,37.4252378 0.837880337,36.7406298 1.6924073,36.7406298 L6.33453202,36.7406298 C7.18905899,36.7406298 7.88185253,37.4252378 7.88185253,38.2696683 L7.88185253,41.3279066 C7.88185253,42.1723372 7.18905899,42.8569452 6.33453202,42.8569452 L1.6924073,42.8569452 C0.837880337,42.8571064 0.145086798,42.1723372 0.145086798,41.3279066 Z" id="Shape"></path>
                    <path d="M0.145086798,4.62920808 L0.145086798,1.57096976 C0.145086798,0.726539241 0.837880337,0.0419312326 1.6924073,0.0419312326 L6.33453202,0.0419312326 C7.18905899,0.0419312326 7.88185253,0.726539241 7.88185253,1.57096976 L7.88185253,4.62920808 C7.88185253,5.47363859 7.18905899,6.1582466 6.33453202,6.1582466 L1.6924073,6.1582466 C0.837880337,6.1582466 0.145086798,5.47363859 0.145086798,4.62920808 Z" id="Shape"></path>
                    <path d="M0.145086798,13.803923 L0.145086798,10.7456847 C0.145086798,9.9012542 0.837880337,9.21664619 1.6924073,9.21664619 L6.33453202,9.21664619 C7.18905899,9.21664619 7.88185253,9.9012542 7.88185253,10.7456847 L7.88185253,13.803923 C7.88185253,14.6483536 7.18905899,15.3329616 6.33453202,15.3329616 L1.6924073,15.3329616 C0.837880337,15.3329616 0.145086798,14.6483536 0.145086798,13.803923 Z" id="Shape"></path>
                </g>
                <path d="M65.9545842,69.011236 L17.045577,69.011236 C15.3573419,69.011236 13.988764,67.6428233 13.988764,65.954432 L13.988764,17.045568 C13.988764,15.3573379 15.3571807,13.988764 17.045577,13.988764 L65.954423,13.988764 C67.6426581,13.988764 69.011236,15.3571767 69.011236,17.045568 L69.011236,65.9542708 C69.0113972,67.6426621 67.6428193,69.011236 65.9545842,69.011236 Z" id="Shape" fill="#444455"></path>
                <rect id="Rectangle-path" fill="#5A5D6F" x="16.7865169" y="16.7865169" width="49.4269663" height="49.4269663"></rect>
                <g id="Group" transform="translate(24.247191, 35.438202)" fill="#FBFBFB">
                    <path d="M0.110515635,6.52384663 C0.110515635,2.52049551 2.38577051,0.101185393 5.97500583,0.101185393 C8.26572313,0.101185393 10.1353742,1.22091601 10.9667643,3.00243174 C11.3520228,3.82774551 10.7514297,4.77611376 9.84272753,4.77611376 L9.82287052,4.77611376 C9.33328138,4.77611376 8.87608194,4.49279466 8.69069562,4.03843961 C8.24179706,2.93796685 7.22599724,2.25349663 5.97500583,2.25349663 C4.01746306,2.25349663 2.75524104,3.89775927 2.75524104,6.51519691 C2.75524104,9.16690702 4.00021025,10.8026831 5.98363223,10.8026831 C7.25382961,10.8026831 8.23089199,10.1851258 8.68678933,9.13965225 C8.87917442,8.69884298 9.32774746,8.42645843 9.80757086,8.42645843 C10.7227835,8.42645843 11.3297243,9.3901677 10.9252599,10.2131966 C10.0806861,11.9312267 8.2956714,12.9549944 5.97500583,12.9549944 C2.3685177,12.9549944 0.110515635,10.5358475 0.110515635,6.52384663 Z" id="Shape"></path>
                    <path d="M18.1930871,0.316449157 C20.7346212,0.316449157 22.4861068,2.01261011 22.4861068,4.56949972 C22.4861068,7.11790281 20.6743991,8.82255028 18.0641793,8.82255028 L15.6172101,8.82255028 L15.6172101,11.4398247 C15.6172101,12.1577514 15.0367996,12.7398938 14.3206453,12.7398938 C13.6046537,12.7398938 13.0240804,12.1579146 13.0240804,11.4398247 L13.0240804,1.61651826 C13.0240804,0.898591573 13.6044909,0.316449157 14.3206453,0.316449157 L18.1930871,0.316449157 Z M15.6172101,6.7906823 L17.4976036,6.7906823 C18.9829728,6.7906823 19.8503333,5.9986618 19.8503333,4.57814944 C19.8503333,3.1661236 18.9917619,2.37410309 17.5063927,2.37410309 L15.6175357,2.37410309 L15.6175357,6.79084551 L15.6172101,6.79084551 L15.6172101,6.7906823 Z" id="Shape"></path>
                    <path d="M26.6074122,8.0907514 C26.6074122,9.68344213 27.5432957,10.7251621 29.2091684,10.7251621 C30.8662519,10.7251621 31.8021354,9.68344213 31.8021354,8.0907514 L31.8021354,1.61635506 C31.8021354,0.898428371 32.3825459,0.316285955 33.0987002,0.316285955 C33.8146918,0.316285955 34.3952651,0.898265169 34.3952651,1.61635506 L34.3952651,8.34893736 C34.3952651,11.0866551 32.3775003,12.9549944 29.2091684,12.9549944 C26.0322101,12.9549944 24.0144453,11.0866551 24.0144453,8.34893736 L24.0144453,1.61635506 C24.0144453,0.898428371 24.5948558,0.316285955 25.3110101,0.316285955 C26.0270017,0.316285955 26.607575,0.898265169 26.607575,1.61635506 L26.607575,8.0907514 L26.6074122,8.0907514 Z" id="Shape"></path>
                </g>
            </g>
            <circle id="Oval" fill="#444455" cx="21.5" cy="21.5" r="2.5"></circle>
        </g>
        <g id="Group-5" transform="translate(608.000000, 276.000000)">
            <g id="Group" fill-rule="nonzero">
                <path d="M73.5517773,53.1207109 L76.2758887,53.1207109 C77.7804375,53.1207109 79,51.9011484 79,50.3965996 L79,2.72411133 C79,1.2195625 77.7804375,0 76.2758887,0 L2.72411133,0 C1.2197168,0 0,1.2195625 0,2.72411133 L0,50.3965996 C0,51.9011484 1.2195625,53.1207109 2.72411133,53.1207109 L73.5517773,53.1207109 Z" id="Shape" fill="#5E5F62"></path>
                <g transform="translate(4.011719, 20.367187)" fill="#D1D4D1">
                    <path d="M4.70466602,12.0498145 C4.41042188,12.0499688 4.12420117,11.9541504 3.88936133,11.7771719 L2.08038477,10.4204395 C0.690169922,9.37739258 -0.0609472656,7.68907617 0.0947382813,5.95817383 C0.250578125,4.22727148 1.29115625,2.70019531 2.84523438,1.92207617 L6.2757168,0.207529297 C6.71114258,-0.0115722656 7.23050586,0.0188242188 7.63754102,0.287146484 C8.04457617,0.55546875 8.27725586,1.02067383 8.24763086,1.50717188 C8.21800586,1.99366992 7.93070508,2.42739844 7.49419922,2.64433984 L4.0635625,4.35888672 C3.28590625,4.74416602 2.79524219,5.53817773 2.79863672,6.40594336 C2.79909961,7.12743555 3.13778125,7.80695898 3.71377148,8.24161328 L5.52274805,9.5983457 C5.99181055,9.95014258 6.18298438,10.5627012 5.99736523,11.1189414 C5.81174609,11.6751816 5.29099414,12.050123 4.70466602,12.0498145 Z" id="Shape"></path>
                    <path d="M9.06494141,12.0498145 C8.47861328,12.050123 7.95786133,11.6751816 7.77224219,11.1189414 C7.58662305,10.5627012 7.77779687,9.95014258 8.24685937,9.5983457 L10.0558359,8.24161328 C10.6903047,7.76468164 11.032998,6.99350586 10.9617129,6.20288867 C10.8904277,5.41227148 10.415502,4.71484961 9.70604492,4.35888672 L6.2755625,2.64433984 C5.83905664,2.42739844 5.55175586,1.99366992 5.52213086,1.50717187 C5.49250586,1.02067383 5.72518555,0.555314453 6.1322207,0.287146484 C6.53925586,0.0188242187 7.05846484,-0.0114179688 7.49404492,0.207529297 L10.9245273,1.92207617 C12.4786055,2.70019531 13.5191836,4.22711719 13.6750234,5.95817383 C13.8308633,7.68907617 13.0795918,9.37739258 11.689377,10.4204395 L9.88040039,11.7771719 C9.64540625,11.9541504 9.35918555,12.0498145 9.06494141,12.0498145 Z" id="Shape"></path>
                    <path d="M69.5400586,47.7362129 C68.9892187,47.7360586 68.4926914,47.404166 68.2819219,46.8952949 C68.0711523,46.3864238 68.1876465,45.8007129 68.5770918,45.4111133 L70.4286543,43.5595508 C70.760084,43.2278125 70.9311992,42.7687793 70.8980254,42.3011055 C70.8648516,41.8334316 70.6304746,41.4030977 70.2556875,41.1215059 L68.1780801,39.5638789 C67.7889434,39.2721035 67.5849629,38.7948633 67.6429785,38.3119141 C67.7009941,37.8289648 68.0123652,37.413752 68.4596719,37.2225781 C68.9069785,37.0314043 69.4223301,37.0934316 69.8114668,37.385207 L71.8892285,38.942834 C72.9802617,39.7644648 73.6232168,41.0499121 73.626457,42.415748 C73.6300059,43.5678828 73.1720527,44.6735742 72.3548965,45.485793 L70.503334,47.3373555 C70.2478184,47.5930254 69.9012676,47.7366758 69.5400586,47.7362129 Z" id="Shape"></path>
                    <path d="M64.0916816,47.7362129 C63.7303184,47.7366758 63.3837676,47.5930254 63.1287148,47.3372012 L61.2771523,45.4856387 C60.4598418,44.6734199 60.0018887,43.5678828 60.0054375,42.415748 C60.0085234,41.0499121 60.6514785,39.7644648 61.742666,38.9426797 L63.8204277,37.3850527 C64.4220312,36.934043 65.2754473,37.0560918 65.726457,37.6576953 C66.1774668,38.2592988 66.055418,39.1127148 65.4538145,39.5637246 L63.3760527,41.1213516 C63.0011113,41.4029434 62.7668887,41.8332773 62.7337148,42.3009512 C62.700541,42.768625 62.8718105,43.2276582 63.2030859,43.5593965 L65.0546484,45.4111133 C65.4440937,45.8007129 65.5605879,46.3864238 65.3498184,46.8952949 C65.1390488,47.4043203 64.6425215,47.7362129 64.0916816,47.7362129 Z" id="Shape"></path>
                    <rect id="Rectangle-path" x="4.16076953" y="12.322457" width="5.44822266" height="12.2585781"></rect>
                    <rect id="Rectangle-path" x="64.0916816" y="24.5810352" width="5.44822266" height="12.2585781"></rect>
                    <polygon id="Shape" points="55.9193477 16.5040566 66.815793 21.8569238 64.5004141 26.0249453 64.0916816 25.7933457 54.5572148 21.5163906"></polygon>
                    <polygon id="Shape" points="17.7813262 16.5040566 6.88488086 21.8569238 9.60899219 25.7933457 19.143459 21.5163906"></polygon>
                </g>
                <path d="M25.8792891,31.3275117 C22.8703457,31.3275117 20.4310664,34.3765723 20.4310664,38.1378672 C20.4310664,41.8991621 22.8703457,44.9482227 25.8792891,44.9482227 L55.8448223,44.9482227 C58.8537656,44.9482227 61.2930449,41.8991621 61.2930449,38.1378672 C61.2930449,34.3765723 58.8537656,31.3275117 55.8448223,31.3275117 L25.8792891,31.3275117 Z" id="Shape" fill="#A5A5A4"></path>
                <path d="M46.3103555,65.3792891 L46.3103555,74.9137559 C46.3117441,75.9978457 45.8817188,77.0381152 45.1151719,77.8046621 C44.348625,78.571209 43.3083555,79.0013887 42.2242656,78.9998457 L39.541043,78.9998457 C37.2850684,78.9979941 35.4566504,77.1695762 35.4547988,74.9136016 L35.4547988,65.3791348 L46.3103588,65.3791348 L46.3103555,65.3792891 Z" id="Shape" fill="#2C3E50"></path>
                <g transform="translate(35.333984, 72.056641)" fill="#2C2F38" id="Shape">
                    <path d="M4.16601563,1.49513672 C4.16385547,2.2465625 3.55530859,2.85510938 2.80388281,2.85726953 L0.120660156,2.85726953 L0.120660156,0.133158203 L2.80388281,0.133158203 C3.55530859,0.135164062 4.16385547,0.743710938 4.16601563,1.49513672 Z"></path>
                    <path d="M10.9763711,0.133003906 L10.9763711,2.85711523 L8.25225977,2.85711523 C7.5000625,2.85711523 6.89012695,2.24733398 6.89012695,1.49498242 C6.89012695,0.742630859 7.4999082,0.132849609 8.25225977,0.132849609 L10.9763711,0.132849609 L10.9763711,0.133003906 Z"></path>
                </g>
            </g>
            <g id="Group" transform="translate(36.000000, 22.000000)" stroke="#000000" stroke-linecap="round" stroke-linejoin="round" stroke-width="2">
                <path d="M1.42675556,0.0357037037 L0.0528888889,1.34355556" id="Shape"></path>
                <path d="M6.9188,1.34355556 L0.0536666667,7.88251852" id="Shape"></path>
            </g>
            <ellipse id="Oval" fill="#A5A5A4" fill-rule="nonzero" cx="69.8743814" cy="44.8169231" rx="4.05172284" ry="4.07430769"></ellipse>
            <g id="Group" transform="translate(5.000000, 4.000000)" fill="#FBFBFB" fill-rule="nonzero">
                <path d="M1.39805322,0.0743076923 C1.03974279,0.0741538462 0.696119734,0.217076923 0.442762749,0.471846154 C0.189405765,0.726615385 0.0472749446,1.07215385 0.0474279379,1.43246154 L0.0474279379,6.86476923 C0.0474279379,7.61476923 0.65205765,8.22292308 1.39805322,8.22292308 C2.14404878,8.22292308 2.74867849,7.61492308 2.74867849,6.86476923 L2.74867849,1.43230769 C2.74883149,1.072 2.60670067,0.726461538 2.35334368,0.471692308 C2.0999867,0.217076923 1.75636364,0.074 1.39805322,0.0743076923 Z" id="Shape"></path>
                <path d="M20.3058891,0.0743076923 C19.9475787,0.0741538462 19.6039557,0.217076923 19.3505987,0.471846154 C19.0972417,0.726615385 18.9551109,1.07215385 18.9552639,1.43246154 L18.9552639,6.86476923 C18.9552639,7.61476923 19.5598936,8.22292308 20.3058891,8.22292308 C21.0518847,8.22292308 21.6565144,7.61492308 21.6565144,6.86476923 L21.6565144,1.43230769 C21.6566674,1.072 21.5145366,0.726461538 21.2611796,0.471692308 C21.0078226,0.216923077 20.6641996,0.074 20.3058891,0.0743076923 Z" id="Shape"></path>
                <path d="M40.5643503,0.0743076923 C40.2060399,0.0741538462 39.8624169,0.217076923 39.6090599,0.471846154 C39.3557029,0.726615385 39.2135721,1.07215385 39.2137251,1.43246154 L39.2137251,6.86476923 C39.2137251,7.61476923 39.8183548,8.22292308 40.5643503,8.22292308 C41.3103459,8.22292308 41.9149756,7.61492308 41.9149756,6.86476923 L41.9149756,1.43230769 C41.9151286,1.072 41.7729978,0.726461538 41.5196408,0.471692308 C41.2662838,0.216923077 40.9226608,0.074 40.5643503,0.0743076923 Z" id="Shape"></path>
                <path d="M14.5079002,0.472153846 C14.2546962,0.217384615 13.9112262,0.0743076923 13.5530687,0.0743076923 C13.1949113,0.0743076923 12.8514412,0.217384615 12.5982373,0.472153846 L10.8519712,2.22815385 L9.1057051,0.472153846 C8.57696009,-0.05 7.72861197,-0.0461538462 7.20460976,0.480769231 C6.68060754,1.00769231 6.67678271,1.86076923 7.19604213,2.39246154 L8.9423082,4.14846154 L7.19604213,5.90461538 C6.84966519,6.24661538 6.71258315,6.74923077 6.83681375,7.22092308 C6.96104435,7.69276923 7.32746341,8.06123077 7.79669401,8.18615385 C8.26592461,8.31107692 8.76560089,8.17307692 9.1057051,7.82492308 L10.8519712,6.06892308 L12.5982373,7.82492308 C13.1265233,8.34953846 13.9770133,8.34676923 14.5019335,7.81892308 C15.0270067,7.29092308 15.0296075,6.43584615 14.5079002,5.90461538 L12.7616341,4.14861538 L14.5079002,2.39261538 C14.7612572,2.138 14.903541,1.79261538 14.903541,1.43246154 C14.903541,1.07230769 14.7612572,0.726769231 14.5079002,0.472153846 Z" id="Shape"></path>
                <path d="M33.8115299,0.0743076923 L27.0587095,0.0743076923 C26.312867,0.0743076923 25.7080843,0.682307692 25.7080843,1.43246154 C25.7080843,2.18261538 26.312714,2.79061538 27.0587095,2.79061538 L33.8115299,2.79061538 C34.5573725,2.79061538 35.1621552,2.18261538 35.1621552,1.43246154 C35.1621552,0.682307692 34.5573725,0.0743076923 33.8115299,0.0743076923 Z" id="Shape"></path>
                <path d="M33.8115299,5.50661538 L27.0587095,5.50661538 C26.312867,5.50661538 25.7080843,6.11461538 25.7080843,6.86476923 C25.7080843,7.61492308 26.312714,8.22292308 27.0587095,8.22292308 L33.8115299,8.22292308 C34.5573725,8.22292308 35.1621552,7.61492308 35.1621552,6.86476923 C35.1621552,6.11461538 34.5573725,5.50661538 33.8115299,5.50661538 Z" id="Shape"></path>
            </g>
            <path d="M40.1621552,16.2970769 C48.3670355,16.2970769 55.0182683,22.9855385 55.0182683,31.236 L55.0182683,59.7558462 C55.0182683,64.2561538 51.390337,67.9044615 46.9148226,67.9044615 L33.4093348,67.9044615 C28.9339734,67.9044615 25.3058891,64.2563077 25.3058891,59.7558462 L25.3058891,31.236 C25.3058891,22.9855385 31.9572749,16.2970769 40.1621552,16.2970769 Z" id="Shape" fill="#D1D4D1" fill-rule="nonzero"></path>
            <path d="M40.1621552,16.2970769 C45.3833592,16.2970769 49.6160732,20.5533846 49.6160732,25.8036923 L49.6160732,33.9523077 C49.6160732,35.4524615 48.4066608,36.6684615 46.9149756,36.6684615 L33.4093348,36.6684615 C31.9174967,36.6684615 30.7082373,35.4524615 30.7082373,33.9523077 L30.7082373,25.8036923 C30.7082373,20.5533846 34.9407982,16.2970769 40.1621552,16.2970769 Z" id="Shape" fill="#35495E" fill-rule="nonzero"></path>
            <g id="Group" transform="translate(6.376940, 28.461538)" fill="#A5A5A4" fill-rule="nonzero">
                <ellipse id="Oval" cx="4.07283592" cy="16.3553846" rx="4.05172284" ry="4.07430769"></ellipse>
                <ellipse id="Oval" cx="4.07283592" cy="4.13261538" rx="4.05172284" ry="4.07430769"></ellipse>
            </g>
            <path d="M10.4497761,25.8036923 C10.0914656,25.8038462 9.74784257,25.6609231 9.49448559,25.4061538 C9.2411286,25.1513846 9.09899778,24.8058462 9.09915078,24.4455385 L9.09915078,16.2969231 C9.09915078,15.5469231 9.70378049,14.9387692 10.4497761,14.9387692 C11.1956186,14.9387692 11.8004013,15.5467692 11.8004013,16.2969231 L11.8004013,24.4455385 C11.8005543,24.8058462 11.6584235,25.1513846 11.4050665,25.4061538 C11.1515565,25.6609231 10.8079335,25.8038462 10.4497761,25.8036923 Z" id="Shape" fill="#F0C419" fill-rule="nonzero"></path>
            <path d="M36.1113503,25.8035385 C35.5160532,25.804 34.9905211,25.4124615 34.8177916,24.8396923 C34.6450621,24.2667692 34.8656785,23.6476923 35.360918,23.3155385 L39.4126408,20.5993846 C39.8140953,20.3263077 40.3302949,20.2904615 40.765255,20.5055385 C41.2002151,20.7206154 41.4872306,21.1535385 41.5173703,21.6398462 C41.54751,22.1261538 41.316031,22.5916923 40.9110576,22.8592308 L36.8593348,25.5753846 C36.6376475,25.724 36.3774058,25.8033846 36.1113503,25.8035385 Z" id="Shape" fill="#3F5C6C" fill-rule="nonzero"></path>
            <ellipse id="Oval" fill="#A5A5A4" fill-rule="nonzero" cx="69.8743814" cy="57.0398462" rx="4.05172284" ry="4.07430769"></ellipse>
        </g>
        <g id="Group-4" transform="translate(381.000000, 276.000000)" fill-rule="nonzero">
            <path d="M67,26.9240714 L67,56.6221429 C67,60.4473095 63.9193958,63.547619 60.1199375,63.547619 L30.7083333,63.547619 L16.75,79 L16.75,63.547619 L6.8800625,63.547619 C3.08060417,63.547619 0,60.4473095 0,56.6235476 L0,26.9254762 C0,23.1003095 3.08060417,20 6.8800625,20 L60.1185417,20 C63.9193958,20 67,23.1003095 67,26.9240714 Z" id="Shape" fill="#84A9CC"></path>
            <path d="M74.1199375,0 L20.8800625,0 C17.0806042,0 14,3.06132258 14,6.8383871 L14,19.4193548 L60.1616042,19.4193548 C63.9610625,19.4193548 67.0416667,22.4806774 67.0416667,26.2577419 L67.0416667,43 L74.1199375,43 C77.9193958,43 81,39.9386774 81,36.1616129 L81,6.8383871 C81,3.06132258 77.9193958,0 74.1199375,0 Z" id="Shape" fill="#97C5D8"></path>
            <circle id="Oval" fill="#FFFFFF" cx="15" cy="42" r="4"></circle>
            <circle id="Oval" fill="#FFFFFF" cx="33" cy="42" r="4"></circle>
            <circle id="Oval" fill="#FFFFFF" cx="51" cy="42" r="4"></circle>
        </g>
    </g>
</svg>