<?xml version="1.0" encoding="UTF-8"?>
<svg width="842px" height="595px" viewBox="0 0 842 595" version="1.1" xmlns="http://www.w3.org/2000/svg" xmlns:xlink="http://www.w3.org/1999/xlink">
    <!-- Generator: Sketch 51.2 (57519) - http://www.bohemiancoding.com/sketch -->
    <title>11</title>
    <desc>Created with Sketch.</desc>
    <defs>
        <linearGradient x1="71.3202012%" y1="0%" x2="71.3202012%" y2="91.1708024%" id="linearGradient-1">
            <stop stop-color="#84A9CC" offset="0%"></stop>
            <stop stop-color="#BFD7EE" offset="100%"></stop>
        </linearGradient>
        <linearGradient x1="4.04317679%" y1="82.2510747%" x2="12.1519479%" y2="73.7139819%" id="linearGradient-2">
            <stop stop-color="#E2EDF8" offset="0%"></stop>
            <stop stop-color="#84A9CC" offset="100%"></stop>
        </linearGradient>
        <path d="M0,113.143107 C0,113.143107 92.0203125,112.209326 142.379688,118.434532 C179.349878,123.00461 218.2557,128.419605 258.398989,126.177753 C297.149155,124.013872 323.421641,115.040238 355.607691,108.540968 C387.819378,102.036563 421.921831,98.3812776 459.666641,99.9976522 C503.356603,101.868638 545.818713,107.617148 586.457813,113.143107 C673.442188,124.970997 854.890869,74.4904632 879,69.3493967 L879,0 L0,0 L0,113.143107 Z" id="path-3"></path>
    </defs>
    <g id="11" stroke="none" stroke-width="1" fill="none" fill-rule="evenodd">
        <rect fill="#FFFFFF" x="0" y="0" width="842" height="595"></rect>
        <text id="網站所使用的技術" font-family="PingFangTC-Light, PingFang TC" font-size="36" font-weight="300" letter-spacing="4.5" fill="#84A9CC">
            <tspan x="259" y="101">網站所使用的技術</tspan>
        </text>
        <g id="Group-2-Copy-4" transform="translate(420.500000, 575.500000) rotate(-180.000000) translate(-420.500000, -575.500000) translate(-19.000000, 512.000000)">
            <g id="Fill-5">
                <use fill="url(#linearGradient-1)" xlink:href="#path-3"></use>
                <use fill-opacity="0.1" fill="url(#linearGradient-2)" xlink:href="#path-3"></use>
            </g>
        </g>
        <text id="Live2D" font-family="PingFangTC-Medium, PingFang TC" font-size="24" font-weight="400" letter-spacing="3" fill="#84A9CC">
            <tspan x="543" y="347">Live2D</tspan>
        </text>
        <text id="PHP、MySQL" font-family="PingFangTC-Medium, PingFang TC" font-size="24" font-weight="400" letter-spacing="3" fill="#84A9CC">
            <tspan x="543" y="219">PHP、MySQL</tspan>
        </text>
        <text id="JavaScript、jQuery" font-family="PingFangTC-Medium, PingFang TC" font-size="24" font-weight="400" letter-spacing="3" fill="#84A9CC">
            <tspan x="61" y="419">JavaScript、jQuery</tspan>
        </text>
        <text id="Bootstrap4" font-family="PingFangTC-Medium, PingFang TC" font-size="24" font-weight="400" letter-spacing="3" fill="#84A9CC">
            <tspan x="61" y="323">Bootstrap4</tspan>
        </text>
        <text id="HTML5、CSS3" font-family="PingFangTC-Medium, PingFang TC" font-size="24" font-weight="400" letter-spacing="3" fill="#84A9CC">
            <tspan x="65" y="220">HTML5、CSS3</tspan>
        </text>
        <text id="依據Mockup原稿設定圖檔，切出適當並" font-family="PingFangTC-Light, PingFang TC" font-size="14" font-weight="300" letter-spacing="1.75" fill="#5A5A5A">
            <tspan x="65" y="242">依據Mockup原稿設定圖檔，切出適</tspan>
            <tspan x="65" y="262">當並符合一致性的網站架構</tspan>
        </text>
        <text id="在HTML上快速套用便利性的類別，製作網" font-family="PingFangTC-Light, PingFang TC" font-size="14" font-weight="300" letter-spacing="1.75" fill="#5A5A5A">
            <tspan x="61" y="344">在HTML上快速套用便利性的類別，</tspan>
            <tspan x="61" y="364">製作網頁切版時效率更佳</tspan>
        </text>
        <text id="在網站的每個分頁充分利用此技術，製作出活" font-family="PingFangTC-Light, PingFang TC" font-size="14" font-weight="300" letter-spacing="1.75" fill="#5A5A5A">
            <tspan x="61" y="442">在網站的每個分頁充分利用此技術，</tspan>
            <tspan x="61" y="462">製作出活潑生動的特效，更讓使用者</tspan>
            <tspan x="61" y="482">在UX體驗上符合人性。</tspan>
        </text>
        <text id="利用此技術製作出在科普小遊戲分頁的動態人" font-family="PingFangTC-Light, PingFang TC" font-size="14" font-weight="300" letter-spacing="1.75" fill="#5A5A5A">
            <tspan x="543" y="373">利用此技術製作出在科普小遊戲分頁</tspan>
            <tspan x="543" y="393">的動態人物，透過互動式的介紹與遊</tspan>
            <tspan x="543" y="413">玩來學習零組件的知識。</tspan>
        </text>
        <text id="透過加入購物車與我要組電腦-完整的會員系" font-family="PingFangTC-Light, PingFang TC" font-size="14" font-weight="300" letter-spacing="1.75" fill="#5A5A5A">
            <tspan x="543" y="243">透過加入購物車與我要組電腦</tspan>
            <tspan x="543" y="263">完整的會員系統，與後端資料結合</tspan>
            <tspan x="543" y="283">使用者便能購買自己所需的商品</tspan>
        </text>
        <g id="Group-2" transform="translate(334.000000, 247.000000)" fill-rule="nonzero">
            <path d="M84.3731594,70.2412554 L109.696236,70.2412554 C110.186151,70.7831584 110.705897,71.2986273 111.251499,71.7850184 C119.512425,79.2500641 132.280035,78.6262147 139.768633,70.3919307 C147.257231,62.1569862 146.631413,49.4295326 138.370487,41.9644869 C133.755082,37.7931547 127.467072,35.9804229 121.330877,37.051012 L121.330877,36.7490001 L121.028575,36.7490001 C119.184269,25.8157746 108.797286,18.442588 97.8295657,20.2810935 C91.165005,21.3986033 85.5074538,25.7734797 82.7641979,31.9300275 C72.6954276,27.1943231 60.6815839,31.4925399 55.9316011,41.5303036 C51.1816183,51.5674065 55.4933961,63.5434652 65.5621665,68.2785087 C67.2665917,69.0794679 69.0744358,69.6392142 70.9346523,69.9399044 C72.0444181,70.1335356 73.1681055,70.2346468 74.2944448,70.2412554 L84.3731594,70.2412554 Z" id="Shape" fill="#A1C0DC"></path>
            <g id="Group" transform="translate(40.000000, 94.000000)" fill="#A1C0DC">
                <path d="M63.7464183,57.2181697 C63.7464183,60.9303714 60.7481569,63.9396551 57.0495526,63.9396551 C53.3509481,63.9396551 50.3526869,60.9303714 50.3526869,57.2181697 C50.3526869,53.5059682 53.3509481,50.4966843 57.0495526,50.4966843 C60.7481569,50.4966843 63.7464183,53.5059682 63.7464183,57.2181697 Z" id="Shape"></path>
                <path d="M36.9589554,57.2181697 C36.9589554,60.9303714 33.960694,63.9396551 30.2620897,63.9396551 C26.564146,63.9396551 23.5658846,60.9303714 23.5658846,57.2181697 C23.5658846,53.5059682 26.564146,50.4966843 30.2620897,50.4966843 C33.960694,50.4966843 36.9589554,53.5059682 36.9589554,57.2181697 Z" id="Shape"></path>
                <path d="M90.5338813,57.2181697 C90.5338813,60.9303714 87.5356199,63.9396551 83.8370155,63.9396551 C80.138411,63.9396551 77.1401498,60.9303714 77.1401498,57.2181697 C77.1401498,53.5059682 80.138411,50.4966843 83.8370155,50.4966843 C87.5356199,50.4966843 90.5338813,53.5059682 90.5338813,57.2181697 Z" id="Shape"></path>
                <path d="M113.972251,6.80702914 C113.972251,10.5192308 110.973989,13.5285145 107.276046,13.5285145 C103.577441,13.5285145 100.57918,10.5192308 100.57918,6.80702914 C100.57918,3.09549072 103.577441,0.0862068117 107.276046,0.0862068117 C110.973989,0.0862068117 113.972251,3.09549072 113.972251,6.80702914 Z" id="Shape"></path>
                <path d="M13.5205861,6.80702914 C13.5205861,10.5192308 10.5223248,13.5285145 6.82372033,13.5285145 C3.12511583,13.5285145 0.126854599,10.5192308 0.126854599,6.80702914 C0.126854599,3.09549072 3.12511583,0.0862068117 6.82372033,0.0862068117 C10.5223248,0.0862068117 13.5205861,3.09549072 13.5205861,6.80702914 Z" id="Shape"></path>
            </g>
            <path d="M168.638638,51.4607797 C154.922373,21.9341461 126.156178,2.29664816 93.6880776,0.294764131 L90.4628569,0 L87.5116316,0.0740214646 C77.4933109,0.440824301 67.6750395,2.98399034 58.7355336,7.52639678 C34.9679357,19.4207208 19.9879911,43.7718001 20.0758015,70.3719422 L20.0758015,82.8419152 L0.478212453,115.538915 C-0.473178057,117.124428 0.0391599504,119.182489 1.6230503,120.135515 C2.14331106,120.448124 2.73883789,120.61335 3.34558874,120.61335 L24.2920263,120.61335 L22.2605005,150.805516 C20.7129228,159.736999 26.5929259,168.265329 35.484235,169.984345 C35.7040915,170.029287 35.9285695,170.051758 36.1537077,170.051097 C36.2732091,170.051097 36.3927106,170.044488 36.5115521,170.03127 L56.8822696,167.820539 L56.8822696,197.650529 C56.8822696,199.500404 58.3803301,201 60.2283122,201 L140.532673,201 C142.379995,201 143.878716,199.500404 143.878716,197.650529 L143.878716,164.364001 L170.0238,99.6930339 C175.768456,84.0341896 175.272623,66.7633956 168.638638,51.4607797 Z M163.770107,97.2979108 L137.430255,162.45134 C137.248692,162.927853 137.178708,163.440055 137.226245,163.948291 C137.226245,164.019008 137.18597,164.079151 137.18597,164.149207 L137.18597,194.294448 L63.5743547,194.294448 L63.5743547,164.155816 C63.5743547,164.08576 63.5373819,164.025618 63.5340808,163.954901 C63.5307795,163.884844 63.5637911,163.80818 63.5538876,163.730853 C63.5129535,163.542495 63.4535327,163.358102 63.3762859,163.181641 C63.2772514,162.725616 63.0521133,162.306601 62.7272804,161.972183 C62.677103,161.91204 62.6572962,161.834714 62.6038176,161.777877 C62.5496787,161.721039 62.5397752,161.74417 62.510065,161.717734 C62.2314481,161.457337 61.9112369,161.245847 61.5626357,161.091195 L61.5164198,161.068063 C61.0034216,160.823528 60.4362845,160.717122 59.8698076,160.760081 L36.3207457,163.311839 C31.1273813,162.000602 27.8678287,156.849501 28.9024082,151.589351 L31.2112304,117.491892 C31.3412957,115.646642 29.9528332,114.045267 28.1094728,113.915069 C28.1081524,113.915069 28.107492,113.914408 28.1061717,113.914408 C27.8552845,113.914408 9.26850665,113.914408 9.26850665,113.914408 L26.299784,85.4947917 C26.3294943,85.4247357 26.3552433,85.3533577 26.3763706,85.2799973 C26.4734242,85.07776 26.5486905,84.8656092 26.6008486,84.6475103 C26.6675318,84.4287504 26.7124274,84.2047033 26.7342149,83.9773516 C26.7342149,83.9000257 26.7777901,83.8332742 26.7777901,83.7526436 L26.7777901,70.3481494 C26.6939409,46.2819208 40.2385469,24.2453342 61.7369363,13.4712457 C69.8102213,9.36834166 78.6771021,7.06904987 87.7255459,6.73198776 L90.4021159,6.73198776 C121.47053,7.60900998 149.385689,25.9590634 162.535478,54.1500059 C168.457736,67.8426551 168.900089,83.2886877 163.770107,97.2979108 Z" id="Shape" fill="#404040"></path>
            <path d="M147.000434,90.6608927 C142.779504,90.6780656 139.02406,93.3577157 137.617083,97.3557248 L127.008217,97.3557248 L127.008217,80.3504812 C139.74267,78.4020051 148.494196,66.451571 146.554672,53.6583386 C144.829482,42.2792376 135.133178,33.8433263 123.676181,33.7548192 C123.342845,33.7548192 123.00951,33.7548192 122.696557,33.7785974 C119.048279,21.3810046 106.087001,14.3017613 93.7463695,17.9662174 C88.2571884,19.5963326 83.5576236,23.1993622 80.5431434,28.0877258 C78.3255115,27.3988239 76.0171494,27.0527217 73.6962955,27.059987 C60.8145701,27.1101852 50.4128052,37.6418642 50.4627727,50.5823882 C50.5022205,60.8762871 57.2248074,69.9383527 67.0322232,72.919191 L67.0322232,97.3550642 L56.4226993,97.3550642 C54.5831101,92.1265429 48.8717056,89.3861268 43.6665497,91.2348675 C38.4613938,93.083608 35.7342261,98.8207146 37.5744726,104.049896 C39.414719,109.279078 45.1254661,112.019494 50.330622,110.170754 C53.1774486,109.159528 55.4167767,106.909863 56.4226993,104.049896 L70.3642594,104.049896 C72.2045059,104.049896 73.6962955,102.551221 73.6962955,100.70248 L73.6962955,73.9238121 L80.3603679,73.9238121 L80.3603679,114.092145 L70.3642594,114.092145 C68.5240128,114.092145 67.0322232,115.59082 67.0322232,117.439561 L67.0322232,141.48772 C61.8270673,143.3358 59.0992422,149.073567 60.9394885,154.302749 C62.7797351,159.53127 68.4911396,162.271686 73.6962955,160.422946 C78.900794,158.574205 81.6286191,152.837099 79.7883726,147.607917 C78.7817928,144.74795 76.5424645,142.498286 73.6962955,141.48772 L73.6962955,120.786977 L83.692404,120.786977 C85.531993,120.786977 87.0244402,119.288301 87.0244402,117.439561 L87.0244402,73.9238121 L93.6878551,73.9238121 L93.6878551,141.48772 C88.4833566,143.3358 85.7555315,149.073567 87.5957778,154.302749 C89.4360244,159.53127 95.1474289,162.271686 100.351927,160.422946 C105.557083,158.574205 108.284908,152.837099 106.444662,147.607917 C105.438082,144.74795 103.198754,142.498286 100.351927,141.48772 L100.351927,73.9238121 L107.016,73.9238121 L107.016,117.439561 C107.016,119.288301 108.507789,120.786977 110.348036,120.786977 L120.344144,120.786977 L120.344144,141.48772 C115.138988,143.3358 112.411821,149.073567 114.252067,154.302749 C116.092314,159.53127 121.803061,162.271686 127.008217,160.422946 C132.213373,158.574205 134.94054,152.837099 133.100294,147.607917 C132.094371,144.74795 129.855043,142.498286 127.008217,141.48772 L127.008217,117.439561 C127.008217,115.59082 125.516427,114.092145 123.676181,114.092145 L113.680072,114.092145 L113.680072,78.3088744 C115.786592,79.320761 118.033152,80.008342 120.344144,80.3471787 L120.344144,100.70248 C120.344144,102.551221 121.835934,104.049896 123.676181,104.049896 L137.617083,104.049896 C139.466534,109.265868 145.174651,111.988451 150.366658,110.130463 C155.558665,108.272476 158.268081,102.538011 156.41863,97.3220392 C155.000476,93.3213881 151.227281,90.6529665 147.000434,90.6608927 Z M47.0400062,104.049896 C45.1997597,104.049896 43.7079701,102.551221 43.7079701,100.70248 C43.7079701,98.8544002 45.1997597,97.3557248 47.0400062,97.3557248 C48.8802528,97.3557248 50.3720424,98.8544002 50.3720424,100.70248 C50.3720424,102.551221 48.8802528,104.049896 47.0400062,104.049896 Z M70.3636019,154.261137 C68.5240128,154.261137 67.0315658,152.761802 67.0315658,150.913721 C67.0315658,149.064981 68.5240128,147.566305 70.3636019,147.566305 C72.2038483,147.566305 73.6956381,149.064981 73.6956381,150.913721 C73.6956381,152.761802 72.2038483,154.261137 70.3636019,154.261137 Z M97.0198912,154.261137 C95.1796447,154.261137 93.6878551,152.761802 93.6878551,150.913721 C93.6878551,149.064981 95.1796447,147.566305 97.0198912,147.566305 C98.8601376,147.566305 100.351927,149.064981 100.351927,150.913721 C100.351927,152.761802 98.8601376,154.261137 97.0198912,154.261137 Z M123.676181,154.261137 C121.835934,154.261137 120.344144,152.761802 120.344144,150.913721 C120.344144,149.064981 121.835934,147.566305 123.676181,147.566305 C125.516427,147.566305 127.008217,149.064981 127.008217,150.913721 C127.008217,152.761802 125.516427,154.261137 123.676181,154.261137 Z M57.0361147,50.4918997 C57.0229654,41.2633878 64.45956,33.7713318 73.6463281,33.7587823 C76.0809237,33.7554798 78.4865907,34.2885035 80.6930454,35.3215263 C82.3630085,36.0976142 84.343295,35.3671008 85.1164746,33.6887693 C85.122392,33.6748987 85.1283091,33.6616887 85.1348838,33.6478182 C88.8653441,25.2105859 98.6984011,21.4087457 107.096868,25.1564249 C112.200774,27.4344908 115.827355,32.1319697 116.752409,37.6649816 C116.854316,38.236975 117.119275,38.7673569 117.515069,39.1913981 C117.698502,39.4813578 117.922698,39.742916 118.18174,39.9681466 C118.93125,40.6002456 119.918107,40.8717111 120.883924,40.7112097 C129.951691,39.1445025 138.567121,45.2600759 140.125972,54.3696975 C141.684823,63.4799798 135.598006,72.1345165 126.529582,73.7012235 C120.865515,74.6794246 115.100198,72.6556513 111.274405,68.3472073 C110.645868,67.6398113 109.748427,67.2336035 108.804964,67.22898 L73.6956381,67.22898 C64.4996653,67.2177515 57.0466342,59.7309793 57.0361147,50.4918997 Z M147.000434,104.049896 C145.160187,104.049896 143.668398,102.551221 143.668398,100.70248 C143.668398,98.8544002 145.160187,97.3557248 147.000434,97.3557248 C148.840023,97.3557248 150.331812,98.8544002 150.331812,100.70248 C150.331812,102.551221 148.840023,104.049896 147.000434,104.049896 Z" id="Shape" fill="#404040"></path>
        </g>
        <path d="M77.5,122.25 L774.5,122.25" id="Line" stroke="#84AACC" fill="#84A9CC" stroke-linecap="square"></path>
    </g>
</svg>