<?xml version="1.0" encoding="UTF-8"?>
<svg width="37px" height="37px" viewBox="0 0 37 37" version="1.1" xmlns="http://www.w3.org/2000/svg" xmlns:xlink="http://www.w3.org/1999/xlink">
    <!-- Generator: Sketch 51.2 (57519) - http://www.bohemiancoding.com/sketch -->
    <title>Stroke 1</title>
    <desc>Created with Sketch.</desc>
    <defs></defs>
    <g id="Page-1" stroke="none" stroke-width="1" fill="none" fill-rule="evenodd">
        <path d="M16.036,18.979 L15.729,18.823 L2.542,11.981 L2.367,11.892 C2.252,11.843 2.116,11.819 1.976,11.819 C1.438,11.819 1,12.213 1,12.703 L1,26.531 C1,27.243 1.483,28.152 2.072,28.552 L15.514,35.682 C15.661,35.765 15.837,35.812 16.024,35.812 C16.562,35.812 17,35.415 17,34.924 L17,20.627 C17,19.942 16.618,19.338 16.036,18.979 Z M34.077,7.759 L19.881,1.374 C19.881,1.374 19.049,1 18.586,1 C18.124,1 17.295,1.374 17.295,1.374 L3.088,7.759 C3.088,7.759 2.464,8.016 2.464,8.5 C2.464,9.012 3.112,9.398 3.112,9.398 L17.376,16.926 L17.603,17.042 C17.899,17.174 18.234,17.25 18.586,17.25 C18.943,17.25 19.283,17.174 19.582,17.039 L19.78,16.936 L34.069,9.394 C34.069,9.394 34.655,9.079 34.655,8.5 C34.655,7.992 34.077,7.759 34.077,7.759 Z M35.024,11.818 C34.885,11.818 34.753,11.843 34.634,11.892 L34.458,11.981 L21.267,18.822 L20.969,18.976 C20.436,19.457 20,20.438 20,21.156 L20,34.924 C20,35.415 20.435,35.812 20.976,35.812 C21.144,35.812 21.304,35.772 21.443,35.704 C21.455,35.697 21.471,35.689 21.483,35.682 L34.924,28.552 L34.927,28.55 C35.589,28.19 36,27.498 36,26.744 L36,12.703 C36,12.213 35.562,11.818 35.024,11.818 Z" id="Stroke-1" stroke="#6C757D"></path>
    </g>
</svg>