<?xml version="1.0" encoding="UTF-8"?>
<svg width="38px" height="39px" viewBox="0 0 38 39" version="1.1" xmlns="http://www.w3.org/2000/svg" xmlns:xlink="http://www.w3.org/1999/xlink">
    <!-- Generator: Sketch 51.2 (57519) - http://www.bohemiancoding.com/sketch -->
    <title>Stroke 1</title>
    <desc>Created with Sketch.</desc>
    <defs></defs>
    <g id="Page-1" stroke="none" stroke-width="1" fill="none" fill-rule="evenodd">
        <path d="M35.9,14 C36.507,13.998 36.998,13.522 37,12.936 L37,12.1 C36.998,11.493 36.507,11.002 35.9,11 L29.88,11 C29.529,9.549 28.432,8.395 27,7.97 L27,2.1 C26.998,1.493 26.507,1.002 25.9,1 L26.112,1 C25.498,1 25,1.498 25,2.112 L25,8 L23,8 L23,2.112 C23,1.498 22.503,1 21.888,1 L21.065,1 C20.478,1.002 20.002,1.508 20,2.133 L20,8 L18,8 L18,2.112 C18,1.498 17.502,1 16.888,1 L16.065,1 C15.478,1.002 15.002,1.508 15,2.133 L15,8 L13,8 L13,2.133 C12.998,1.508 12.523,1.002 11.935,1 L12.112,1 C11.498,1 11,1.498 11,2.112 L11,7.97 C9.567,8.394 8.469,9.548 8.118,11 L2.112,11 C1.498,11 1,11.498 1,12.112 L1,12.936 C1.002,13.522 1.493,13.998 2.1,14 L8,14 L8,16 L2.112,16 C1.498,16 1,16.498 1,17.112 L1,17.938 C1.002,18.523 1.493,18.998 2.1,19 L8,19 L8,21 L2.1,21 C1.493,21.002 1.002,21.477 1,22.062 L1,22.888 C1,23.502 1.498,24 2.112,24 L8,24 L8,26 L2.112,26 C1.498,26 1,26.498 1,27.112 L1,26.9 C1.002,27.507 1.493,27.998 2.1,28 L8.118,28 C8.47,29.451 9.568,30.604 11,31.028 L11,36.9 C11.002,37.507 11.493,37.998 12.1,38 L11.935,38 C12.523,37.998 12.998,37.492 13,36.867 L13,31 L15,31 L15,36.867 C15.002,37.492 15.478,37.998 16.065,38 L16.935,38 C17.523,37.998 17.998,37.492 18,36.867 L18,31 L20,31 L20,36.867 C20.002,37.492 20.478,37.998 21.065,38 L21.936,38 C22.523,37.998 22.998,37.492 23,36.867 L23,31 L25,31 L25,36.867 C25.002,37.492 25.477,37.998 26.064,38 L25.9,38 C26.507,37.998 26.998,37.507 27,36.9 L27,31.026 C28.431,30.603 29.528,29.449 29.88,28 L35.9,28 C36.507,27.998 36.998,27.507 37,26.9 L37,27.067 C36.998,26.479 36.507,26.002 35.9,26 L30,26 L30,24 L35.9,24 C36.507,23.998 36.998,23.521 37,22.933 L37,22.062 C36.998,21.477 36.507,21.002 35.9,21 L30,21 L30,19 L35.9,19 C36.507,18.998 36.998,18.523 37,17.938 L37,17.064 C36.998,16.478 36.507,16.002 35.9,16 L30,16 L30,14 L35.9,14 Z" id="Stroke-1" stroke="#6C757D"></path>
    </g>
</svg>