<?xml version="1.0" encoding="UTF-8"?>
<svg width="42px" height="42px" viewBox="0 0 42 42" version="1.1" xmlns="http://www.w3.org/2000/svg" xmlns:xlink="http://www.w3.org/1999/xlink">
    <!-- Generator: Sketch 51.2 (57519) - http://www.bohemiancoding.com/sketch -->
    <title>Group 29</title>
    <desc>Created with Sketch.</desc>
    <defs></defs>
    <g id="Page-1" stroke="none" stroke-width="1" fill="none" fill-rule="evenodd">
        <g id="Group-29">
            <path d="M39.8008,15.459 L15.4588,39.801 C14.3698,40.89 12.6058,40.89 11.5168,39.801 L1.3168,29.601 C0.2278,28.512 0.2278,26.747 1.3168,25.658 L25.6578,1.316 C26.7468,0.228 28.5118,0.228 29.6008,1.316 L39.8008,11.517 C40.8898,12.605 40.8898,14.37 39.8008,15.459 Z" id="Stroke-1" stroke="#6C757D"></path>
            <path d="M13.7334,28.7979 L11.1204,31.4109 C10.8654,31.6659 10.4534,31.6659 10.1984,31.4109 L7.5844,28.7979 C7.3304,28.5429 7.3304,28.1309 7.5844,27.8759 L10.1984,25.2619 C10.4534,25.0079 10.8654,25.0079 11.1204,25.2619 L13.7334,27.8759 C13.9884,28.1309 13.9884,28.5429 13.7334,28.7979 Z" id="Stroke-3" stroke="#6C757D"></path>
            <path d="M20.0977,22.4336 L17.4837,25.0476 C17.2297,25.3016 16.8167,25.3016 16.5627,25.0476 L13.9487,22.4336 C13.6937,22.1786 13.6937,21.7666 13.9487,21.5116 L16.5627,18.8986 C16.8167,18.6436 17.2297,18.6436 17.4837,18.8986 L20.0977,21.5116 C20.3527,21.7666 20.3527,22.1786 20.0977,22.4336 Z" id="Stroke-5" stroke="#6C757D"></path>
            <path d="M25.7549,16.7764 L23.1409,19.3904 C22.8859,19.6454 22.4739,19.6454 22.2189,19.3904 L19.6059,16.7764 C19.3509,16.5224 19.3509,16.1094 19.6059,15.8554 L22.2189,13.2414 C22.4739,12.9864 22.8859,12.9864 23.1409,13.2414 L25.7549,15.8554 C26.0089,16.1094 26.0089,16.5224 25.7549,16.7764 Z" id="Stroke-7" stroke="#6C757D"></path>
            <path d="M32.1182,10.4131 L29.5052,13.0261 C29.2502,13.2811 28.8382,13.2811 28.5832,13.0261 L25.9692,10.4131 C25.7152,10.1581 25.7152,9.7461 25.9692,9.4911 L28.5832,6.8771 C28.8382,6.6231 29.2502,6.6231 29.5052,6.8771 L32.1182,9.4911 C32.3732,9.7461 32.3732,10.1581 32.1182,10.4131 Z" id="Stroke-9" stroke="#6C757D"></path>
            <polygon id="Fill-11" fill="#6C757D" points="17.7305 38.2363 17.0235 38.9433 14.1945 36.1153 14.9015 35.4083"></polygon>
            <polygon id="Fill-13" fill="#6C757D" points="19.1446 36.8223 18.4376 37.5293 15.6086 34.7013 16.3166 33.9933"></polygon>
            <polygon id="Fill-15" fill="#6C757D" points="33.9932 21.9727 33.2862 22.6797 30.4582 19.8517 31.1652 19.1447"></polygon>
            <polygon id="Fill-17" fill="#6C757D" points="35.4082 20.5586 34.7012 21.2656 31.8722 18.4376 32.5792 17.7306"></polygon>
            <polygon id="Fill-19" fill="#6C757D" points="38.2364 17.7305 37.5294 18.4375 34.7014 15.6085 35.4084 14.9015"></polygon>
            <polygon id="Fill-21" fill="#6C757D" points="39.6504 16.3164 38.9434 17.0234 36.1154 14.1944 36.8224 13.4874"></polygon>
            <polygon id="Fill-23" fill="#6C757D" points="21.9727 33.9932 21.2657 34.7012 18.4377 31.8722 19.1447 31.1652"></polygon>
            <polygon id="Fill-25" fill="#6C757D" points="23.3867 32.5791 22.6797 33.2861 19.8517 30.4581 20.5587 29.7511"></polygon>
            <polygon id="Fill-27" fill="#6C757D" points="24.8008 31.1651 24.0938 31.8721 21.2658 29.0441 21.9728 28.3371"></polygon>
        </g>
    </g>
</svg>