<?xml version="1.0" encoding="UTF-8"?>
<svg width="45px" height="32px" viewBox="0 0 45 32" version="1.1" xmlns="http://www.w3.org/2000/svg" xmlns:xlink="http://www.w3.org/1999/xlink">
    <!-- Generator: Sketch 51.2 (57519) - http://www.bohemiancoding.com/sketch -->
    <title>Group 7</title>
    <desc>Created with Sketch.</desc>
    <defs></defs>
    <g id="Page-1" stroke="none" stroke-width="1" fill="none" fill-rule="evenodd">
        <g id="Group-7" stroke="#6C757D">
            <path d="M33.5,13.5859 C33.169,13.5859 32.84,13.5359 32.525,13.4359 C32.077,13.2979 31.668,13.0629 31.326,12.7469 C29.868,12.2489 28.249,12.7319 27.323,13.9409 C27.469,13.9409 27.615,13.9279 27.766,13.9279 C31.42,13.9279 34.38,16.1849 34.38,18.9689 C34.38,20.9739 32.847,22.7029 30.613,23.5209 C30.231,23.6919 29.816,23.7819 29.396,23.7849 C27.716,23.7529 26.379,22.3949 26.41,20.7499 C26.409,20.4269 26.461,20.1049 26.563,19.7969 C26.704,19.3579 26.945,18.9569 27.268,18.6239 C27.776,17.1969 27.282,15.6119 26.047,14.7059 C26.047,14.8499 26.061,14.9919 26.061,15.1399 C26.061,18.7149 23.754,21.6129 20.909,21.6129 C18.859,21.6129 17.092,20.1099 16.256,17.9279 C16.08,17.5549 15.988,17.1489 15.986,16.7369 C16.019,15.0929 17.407,13.7849 19.088,13.8149 C19.419,13.8149 19.747,13.8659 20.062,13.9649 C20.511,14.1039 20.92,14.3389 21.261,14.6539 C22.719,15.1509 24.339,14.6689 25.265,13.4599 C25.118,13.4599 24.973,13.4729 24.821,13.4729 C21.168,13.4729 18.206,11.2159 18.206,8.4329 C18.206,6.4279 19.741,4.6969 21.973,3.8799 C22.195,3.7789 22.431,3.7069 22.673,3.6629 C22.844,3.6329 23.017,3.6169 23.191,3.6179 C24.871,3.6499 26.207,5.0089 26.176,6.6529 C26.176,6.9769 26.125,7.2979 26.024,7.6069 C25.884,8.0449 25.643,8.4449 25.32,8.7789 C24.812,10.2059 25.306,11.7899 26.541,12.6959 C26.541,12.5539 26.527,12.4099 26.527,12.2639 C26.527,8.6889 28.834,5.7919 31.679,5.7919 C33.726,5.7919 35.496,7.2919 36.331,9.4779 C36.508,9.8509 36.6,10.2569 36.6,10.6679 C36.561,12.3079 35.176,13.6079 33.5,13.5789 L33.5,13.5859 Z" id="Stroke-1"></path>
            <path d="M0.5,1.5 L0.5,5.5 C0.5,6.053 0.948,6.5 1.5,6.5 C2.052,6.5 2.5,6.947 2.5,7.5 L2.5,30.5 C2.5,31.053 2.948,31.5 3.5,31.5 L26.5,31.5 C27.053,31.5 27.5,31.053 27.5,30.5 L27.5,27.5 C27.5,26.947 27.947,26.5 28.5,26.5 L43.5,26.5 C44.053,26.5 44.5,26.053 44.5,25.5 L44.5,1.5 C44.5,0.947 44.053,0.5 43.5,0.5 L1.5,0.5 C0.948,0.5 0.5,0.947 0.5,1.5 Z" id="Stroke-3"></path>
            <path d="M8,0.5 L8,31.5" id="Stroke-5"></path>
        </g>
    </g>
</svg>