<?xml version="1.0" encoding="UTF-8"?>
<svg width="31px" height="37px" viewBox="0 0 31 37" version="1.1" xmlns="http://www.w3.org/2000/svg" xmlns:xlink="http://www.w3.org/1999/xlink">
    <!-- Generator: Sketch 51.2 (57519) - http://www.bohemiancoding.com/sketch -->
    <title>Group 5</title>
    <desc>Created with Sketch.</desc>
    <defs></defs>
    <g id="Page-1" stroke="none" stroke-width="1" fill="none" fill-rule="evenodd">
        <g id="Group-5" transform="translate(0.000000, 1.000000)" stroke="#6C757D">
            <path d="M14.6548,11.1885 C16.0358,11.1885 17.1548,12.3075 17.1548,13.6885 C17.1548,15.0695 16.0358,16.1885 14.6548,16.1885 C13.2748,16.1885 12.1548,15.0695 12.1548,13.6885 C12.1548,12.3075 13.2748,11.1885 14.6548,11.1885 Z" id="Stroke-1"></path>
            <path d="M22.8052,31.5146 C22.1442,31.5146 21.5082,31.2526 21.0332,30.7836 C20.8302,30.5846 20.6612,30.3526 20.5332,30.0966 L15.0952,22.6186 C15.0662,22.5906 15.0392,22.5596 15.0132,22.5266 C14.9772,22.4786 14.9452,22.4266 14.9162,22.3736 C14.8132,22.1866 14.7592,21.9756 14.7592,21.7606 C14.7612,21.2526 15.0612,20.7956 15.5212,20.6006 C15.9802,20.4066 16.5102,20.5136 16.8632,20.8706 C16.8952,20.9066 16.9262,20.9406 16.9562,20.9796 L23.9332,26.5706 C24.2642,26.7336 24.5572,26.9676 24.7912,27.2566 C25.4202,28.0356 25.5512,29.1166 25.1282,30.0296 C24.7052,30.9416 23.8042,31.5246 22.8152,31.5246 L22.8052,31.5146 Z M12.3482,23.3626 C8.0782,22.4106 5.0002,18.6026 4.8962,14.1446 C4.7932,9.6876 7.6912,5.7356 11.9122,4.5776 C16.1342,3.4216 20.5832,5.3606 22.6822,9.2716 C24.7822,13.1816 23.9882,18.0506 20.7602,21.0566 C20.7492,21.0246 20.7392,20.9916 20.7262,20.9596 C19.7522,18.3096 17.1242,16.8606 14.8802,17.7236 C12.8292,18.5086 11.7872,20.9356 12.3482,23.3626 Z M24.9042,0.4996 L5.0962,0.4996 C2.5612,0.5076 0.5072,2.6026 0.5002,5.1896 L0.5002,30.8106 C0.5072,33.3976 2.5612,35.4926 5.0962,35.4996 L24.9042,35.4996 C27.4392,35.4926 29.4922,33.3976 29.5002,30.8106 L29.5002,5.1896 C29.4922,2.6026 27.4392,0.5076 24.9042,0.4996 Z" id="Stroke-3"></path>
        </g>
    </g>
</svg>