<?xml version="1.0" encoding="UTF-8"?>
<svg width="31px" height="33px" viewBox="0 0 31 33" version="1.1" xmlns="http://www.w3.org/2000/svg" xmlns:xlink="http://www.w3.org/1999/xlink">
    <!-- Generator: Sketch 51.2 (57519) - http://www.bohemiancoding.com/sketch -->
    <title>Group 5</title>
    <desc>Created with Sketch.</desc>
    <defs></defs>
    <g id="Page-1" stroke="none" stroke-width="1" fill="none" fill-rule="evenodd">
        <g id="Group-5" transform="translate(1.000000, 0.000000)" stroke="#6C757D">
            <path d="M20.2997,6.7513 L20.2997,8.3183 C20.2997,8.4083 20.3487,8.4913 20.4257,8.5383 C26.4037,12.1743 27.7847,20.8423 21.5637,26.3353 C21.4047,26.4753 21.2297,26.6053 21.0487,26.7153 C14.0837,30.9803 6.3207,27.3273 4.4117,20.7673 C3.0507,16.0853 5.0007,11.0623 9.1977,8.5233 C9.2617,8.4863 9.2997,8.4193 9.2997,8.3463 L9.2997,6.6843 C9.3057,6.2153 9.0537,5.7803 8.6437,5.5523 C8.2337,5.3223 7.7307,5.3363 7.3327,5.5863 C3.0767,8.1863 0.4877,12.8123 0.4997,17.7913 C0.5187,25.4753 6.7497,31.8413 14.4547,32.0223 C20.9087,32.1823 26.6707,28.0073 28.5147,21.8333 C30.3587,15.6583 27.8277,9.0183 22.3387,5.6263 C21.9287,5.3673 21.4097,5.3533 20.9867,5.5873 C20.5617,5.8213 20.2987,6.2673 20.2997,6.7513 Z" id="Stroke-1"></path>
            <path d="M15.8466,14.5189 L13.7646,14.5189 C13.2346,14.5189 12.8056,14.0899 12.8056,13.5599 L12.8056,1.4779 C12.8056,0.9479 13.2346,0.5189 13.7646,0.5189 L15.8466,0.5189 C16.3766,0.5189 16.8056,0.9479 16.8056,1.4779 L16.8056,13.5599 C16.8056,14.0899 16.3766,14.5189 15.8466,14.5189 Z" id="Stroke-3" stroke-width="1.038"></path>
        </g>
    </g>
</svg>