<?xml version="1.0" encoding="UTF-8"?>
<svg width="19px" height="34px" viewBox="0 0 19 34" version="1.1" xmlns="http://www.w3.org/2000/svg" xmlns:xlink="http://www.w3.org/1999/xlink">
    <!-- Generator: Sketch 51.2 (57519) - http://www.bohemiancoding.com/sketch -->
    <title>Group 7</title>
    <desc>Created with Sketch.</desc>
    <defs>
        <polygon id="path-1" points="0 34 18 34 18 0 0 0"></polygon>
    </defs>
    <g id="Page-1" stroke="none" stroke-width="1" fill="none" fill-rule="evenodd">
        <g id="Group-7">
            <path d="M14.8252,33.5 L3.1752,33.5 C1.6972,33.5 0.5002,32.303 0.5002,30.825 L0.5002,3.175 C0.5002,1.697 1.6972,0.5 3.1752,0.5 L14.8252,0.5 C16.3032,0.5 17.5002,1.697 17.5002,3.175 L17.5002,30.825 C17.5002,32.303 16.3032,33.5 14.8252,33.5 Z" id="Stroke-1" stroke="#6C757D"></path>
            <mask id="mask-2" fill="white">
                <use xlink:href="#path-1"></use>
            </mask>
            <g id="Clip-4"></g>
            <polygon id="Stroke-3" stroke="#6C757D" mask="url(#mask-2)" points="3.5 9.5 14.5 9.5 14.5 4.5 3.5 4.5"></polygon>
            <polygon id="Stroke-5" stroke="#6C757D" mask="url(#mask-2)" points="11.5 14.5 14.5 14.5 14.5 11.5 11.5 11.5"></polygon>
            <polygon id="Stroke-6" stroke="#6C757D" mask="url(#mask-2)" points="3.5 29.5 14.5 29.5 14.5 26.5 3.5 26.5"></polygon>
        </g>
    </g>
</svg>