<?xml version="1.0" encoding="UTF-8"?>
<svg width="48px" height="48px" viewBox="0 0 48 48" version="1.1" xmlns="http://www.w3.org/2000/svg" xmlns:xlink="http://www.w3.org/1999/xlink">
    <!-- Generator: Sketch 51.2 (57519) - http://www.bohemiancoding.com/sketch -->
    <title>more</title>
    <desc>Created with Sketch.</desc>
    <defs></defs>
    <g id="Page-1" stroke="none" stroke-width="1" fill="none" fill-rule="evenodd">
        <g id="more" fill="#707070" fill-rule="nonzero">
            <path d="M24,0 C10.7368421,0 0,10.7368421 0,24 C0,37.2631579 10.7368421,48 24,48 C37.2631579,48 48,37.2631579 48,24 C48,10.7368421 37.2631579,0 24,0 Z M24,45.4736842 C12.1263158,45.4736842 2.52631579,35.8736842 2.52631579,24 C2.52631579,12.1263158 12.1263158,2.52631579 24,2.52631579 C35.8736842,2.52631579 45.4736842,12.1263158 45.4736842,24 C45.4736842,35.8736842 35.8736842,45.4736842 24,45.4736842 Z M24,19.5789474 C21.5368421,19.5789474 19.5789474,21.5368421 19.5789474,24 C19.5789474,26.4631579 21.5368421,28.4210526 24,28.4210526 C26.4631579,28.4210526 28.4210526,26.4631579 28.4210526,24 C28.4210526,21.5368421 26.4631579,19.5789474 24,19.5789474 Z M24,25.8947368 C22.9263158,25.8947368 22.1052632,25.0105263 22.1052632,24 C22.1052632,22.9263158 22.9263158,22.1052632 24,22.1052632 C25.0736842,22.1052632 25.8947368,22.9263158 25.8947368,24 C25.8947368,25.0105263 25.0736842,25.8947368 24,25.8947368 Z M36.6315789,19.5789474 C34.1684211,19.5789474 32.2105263,21.5368421 32.2105263,24 C32.2105263,26.4631579 34.1684211,28.4210526 36.6315789,28.4210526 C39.0947368,28.4210526 41.0526316,26.4631579 41.0526316,24 C41.0526316,21.5368421 39.0947368,19.5789474 36.6315789,19.5789474 Z M36.6315789,25.8947368 C35.5578947,25.8947368 34.7368421,25.0105263 34.7368421,24 C34.7368421,22.9263158 35.5578947,22.1052632 36.6315789,22.1052632 C37.7052632,22.1052632 38.5263158,22.9263158 38.5263158,24 C38.5263158,25.0105263 37.7052632,25.8947368 36.6315789,25.8947368 Z M11.3684211,19.5789474 C8.90526316,19.5789474 6.94736842,21.5368421 6.94736842,24 C6.94736842,26.4631579 8.90526316,28.4210526 11.3684211,28.4210526 C13.8315789,28.4210526 15.7894737,26.4631579 15.7894737,24 C15.7894737,21.5368421 13.8315789,19.5789474 11.3684211,19.5789474 Z M11.3684211,25.8947368 C10.2947368,25.8947368 9.47368421,25.0105263 9.47368421,24 C9.47368421,22.9263158 10.2947368,22.1052632 11.3684211,22.1052632 C12.4421053,22.1052632 13.2631579,22.9263158 13.2631579,24 C13.2631579,25.0105263 12.4421053,25.8947368 11.3684211,25.8947368 Z" id="More_Details__x28_3_x29_"></path>
        </g>
    </g>
</svg>