<?xml version="1.0" encoding="UTF-8"?>
<svg width="17px" height="16px" viewBox="0 0 17 16" version="1.1" xmlns="http://www.w3.org/2000/svg" xmlns:xlink="http://www.w3.org/1999/xlink">
    <!-- Generator: Sketch 51.2 (57519) - http://www.bohemiancoding.com/sketch -->
    <title>星形</title>
    <desc>Created with Sketch.</desc>
    <defs></defs>
    <g id="Page-1" stroke="none" stroke-width="1" fill="none" fill-rule="evenodd">
        <g id="首頁下方" transform="translate(-803.000000, -1524.000000)" fill-rule="nonzero">
            <g id="星形" transform="translate(802.000000, 1522.000000)">
                <rect id="Rectangle-path" fill="#000000" opacity="0" x="0" y="0" width="19" height="19"></rect>
                <path d="M14.4484804,17.9999521 C14.368837,17.9999521 14.2891936,17.9812474 14.2171353,17.9438381 L9.50111028,15.4991412 L4.78508521,17.9438381 C4.6182134,18.0298795 4.41531244,18.0167862 4.26171452,17.9064288 C4.1081166,17.7960715 4.03226577,17.6108955 4.06450237,17.4257195 L4.96523092,12.2464037 L1.14993441,8.57842313 C1.01340292,8.44749062 0.965996157,8.25296233 1.02478055,8.07526821 C1.08356494,7.8975741 1.23905913,7.76851206 1.42678992,7.7404551 L6.69842228,6.9847875 L9.05359041,2.2730878 C9.13702632,2.104746 9.30958695,2 9.49921401,2 C9.68884107,2 9.8614017,2.10661647 9.94483761,2.2730878 L12.301902,6.9847875 L17.5735344,7.7404551 C17.7612652,7.7666416 17.9167594,7.8975741 17.9755437,8.07526821 C18.0343281,8.25296233 17.9850251,8.44749062 17.8503899,8.57842313 L14.0388859,12.2464037 L14.9377182,17.4257195 C14.9699548,17.609025 14.8922077,17.7960715 14.740506,17.9064288 C14.6532776,17.9681542 14.550879,17.9999521 14.4484804,17.9999521 Z M9.50111028,14.4516812 C9.58075365,14.4516812 9.66039701,14.4703858 9.7324553,14.5077951 L13.7866819,16.6120675 L13.0130035,12.1584919 C12.9864557,11.9995024 13.0395513,11.836772 13.1552238,11.7245442 L16.435772,8.57094127 L11.9036852,7.92189014 C11.7406059,7.89944457 11.6021781,7.79843949 11.5282236,7.65254327 L9.50111028,3.60111749 L7.47399697,7.65254327 C7.40193869,7.79656903 7.26161466,7.8975741 7.09853539,7.92189014 L2.56644857,8.57094127 L5.84699677,11.7245442 C5.96456555,11.836772 6.01766113,11.9995024 5.98921707,12.1584919 L5.21553865,16.6120675 L9.26976526,14.5096656 C9.34182355,14.4703858 9.42146691,14.4516812 9.50111028,14.4516812 Z" id="Shape" fill="#666666"></path>
            </g>
        </g>
    </g>
</svg>